<svg width="228" height="183" viewBox="0 0 228 183" fill="none" xmlns="http://www.w3.org/2000/svg" aria-labelledby="resume_graphic_title"><title id="resume_graphic_title">Resume</title><path d="M82.7489 167.323C65.3472 158.758 50.3191 150.891 46.2141 138.707C42.2468 126.488 49.2025 109.953 43.3294 92.5122C37.4563 75.0716 18.5858 56.6385 20.9405 44.5069C23.2645 32.2535 46.6451 26.2145 66.0081 25.7278C85.3711 25.2411 100.686 30.1848 121.403 24.0413C141.982 17.9327 167.964 0.736873 183.596 2.87828C199.365 4.98488 204.816 26.5505 212.867 46.8109C221.025 66.9146 231.645 85.7477 223.751 99.1497C215.826 112.43 189.173 120.592 172.142 135.526C155.005 150.616 147.246 172.668 133.602 178.969C119.819 185.304 100.013 175.921 82.7489 167.323Z" fill="#F7F8F8"/><path opacity="0.6" fill-rule="evenodd" clip-rule="evenodd" d="M20.3423 77.8826C6.69648 78.0865 -1.3677 91.3613 1.97823 104.392C5.32415 117.423 15.1999 122.275 24.6191 113.965C34.0382 105.655 33.9881 77.6786 20.3423 77.8826Z" fill="#F1F3F4"/><rect x="59.8413" y="16.1914" width="128.88" height="150.677" rx="3.28691" fill="white" stroke="#D3D5D8" stroke-width="3"/><path d="M84.3413 118.691H113.887" stroke="#E7EAEB" stroke-width="3" stroke-linecap="round"/><path d="M84.3413 81.6914H132.599" stroke="#E7EAEB" stroke-width="3" stroke-linecap="round"/><path d="M124.341 32.6914H172.599" stroke="#E7EAEB" stroke-width="3" stroke-linecap="round"/><path d="M84.7173 133.299H162.646" stroke="#E7EAEB" stroke-width="3" stroke-linecap="round"/><path d="M84.7173 96.2992H162.646" stroke="#E7EAEB" stroke-width="3" stroke-linecap="round"/><path d="M124.341 47.1914H172.599" stroke="#E7EAEB" stroke-width="3" stroke-linecap="round"/><path d="M84.7173 147.706H162.646" stroke="#E7EAEB" stroke-width="3" stroke-linecap="round"/><path d="M107.895 47.6914C107.895 56.802 100.498 64.1914 91.3682 64.1914C82.2385 64.1914 74.8413 56.802 74.8413 47.6914C74.8413 38.5808 82.2385 31.1914 91.3682 31.1914C100.498 31.1914 107.895 38.5808 107.895 47.6914Z" fill="#FAFBFC" stroke="#D3D5D8" stroke-width="3"/><path d="M95.2766 42.2916C95.2766 44.4434 93.529 46.1916 91.3685 46.1916C89.208 46.1916 87.4604 44.4434 87.4604 42.2916C87.4604 40.1398 89.208 38.3916 91.3685 38.3916C93.529 38.3916 95.2766 40.1398 95.2766 42.2916Z" fill="white" stroke="#D3D5D8" stroke-width="3"/><path d="M91.3684 50.9917C93.8518 50.9917 96.1715 52.2003 97.9008 54.1249C99.5485 55.9587 100.579 58.3576 100.677 60.7375C100.599 60.8114 100.491 60.9052 100.348 61.0167C99.8655 61.3906 99.1261 61.8498 98.1954 62.2972C96.3256 63.1961 93.8718 63.9578 91.4722 63.9665C89.0382 63.9753 86.531 63.2131 84.6141 62.3075C83.6603 61.8569 82.8998 61.3928 82.4024 61.0141C82.2532 60.9005 82.141 60.8046 82.0603 60.7291C82.1605 58.3519 83.1902 55.9565 84.836 54.1249C86.5652 52.2003 88.8849 50.9917 91.3684 50.9917Z" fill="white" stroke="#D3D5D8" stroke-width="3"/></svg>